<?xml version="1.0" standalone="no"?><!DOCTYPE svg PUBLIC "-//W3C//DTD SVG 1.1//EN" "http://www.w3.org/Graphics/SVG/1.1/DTD/svg11.dtd"><svg t="1607509929111" class="icon" viewBox="0 0 1024 1024" version="1.1" xmlns="http://www.w3.org/2000/svg" p-id="7393" width="128" height="128" xmlns:xlink="http://www.w3.org/1999/xlink"><defs><style type="text/css"></style></defs><path d="M181.988 103.872c-3.896 46.256-52.096 53.56-52.096 53.56 41.388 1.948 51.7 56.236 51.7 56.236 0.884-38.708 53.284-56.808 53.284-56.808-39.252-2.352-52.888-52.988-52.888-52.988z" fill="#D7E057" p-id="7394"></path><path d="M235.236 150.872c-34.42-2.064-47.328-48.1-47.456-48.568a6 6 0 1 0-11.768 1.06c-3.44 40.864-45.252 47.856-47.016 48.128a6 6 0 0 0 0.616 11.928c36.112 1.704 45.996 50.876 46.088 51.376a6 6 0 0 0 11.892-0.992c0.78-34.036 48.768-51.108 49.252-51.276a6 6 0 0 0-1.608-11.656zM180.972 192.252c-5.424-12.524-14.832-27.632-30.344-35.508 11.724-5.616 25.636-15.652 32.808-33.092 6.204 12.284 16.8 27.524 33.336 34.892-12.032 6.556-27.692 17.62-35.8 33.708z" fill="#3A312A" p-id="7395"></path><path d="M95.196 171.796c-2.756 32.716-36.848 37.884-36.848 37.884 29.272 1.376 36.568 39.776 36.568 39.776 0.624-27.376 37.688-40.18 37.688-40.18-27.768-1.664-37.408-37.48-37.408-37.48z" fill="#D7E057" p-id="7396"></path><path d="M132.96 203.284c-23.064-1.384-31.888-32.748-31.976-33.064a6 6 0 0 0-11.768 1.064c-2.316 27.484-30.584 32.264-31.768 32.452a6 6 0 0 0 0.616 11.928c24.14 1.136 30.896 34.58 30.956 34.908a6 6 0 0 0 11.892-0.984c0.52-22.836 33.324-34.532 33.648-34.644a6 6 0 0 0-1.6-11.66z m-38.336 27.176c-3.696-7.54-9.36-15.788-17.788-21.116 7.42-4.164 14.788-10.52 19.484-19.668 4.228 7.496 10.616 15.82 19.764 20.9-7.404 4.4-15.956 10.956-21.46 19.884z" fill="#3A312A" p-id="7397"></path><path d="M95.196 65.164c-2.756 32.716-36.848 37.884-36.848 37.884 29.272 1.376 36.568 39.776 36.568 39.776 0.624-27.376 37.688-40.18 37.688-40.18-27.768-1.664-37.408-37.48-37.408-37.48z" fill="#D7E057" p-id="7398"></path><path d="M132.96 96.652c-23.064-1.38-31.888-32.744-31.972-33.06a6 6 0 0 0-11.768 1.064c-2.316 27.484-30.584 32.264-31.768 32.452a6 6 0 0 0 0.616 11.928c24.14 1.136 30.896 34.58 30.956 34.908a6 6 0 0 0 11.896-0.984c0.52-22.836 33.328-34.536 33.648-34.648a5.996 5.996 0 0 0-1.608-11.66z m-38.336 27.18c-3.696-7.54-9.36-15.788-17.788-21.116 7.42-4.164 14.788-10.52 19.484-19.668 4.228 7.496 10.616 15.816 19.764 20.896-7.404 4.4-15.956 10.96-21.46 19.888z" fill="#3A312A" p-id="7399"></path><path d="M438.58 149.06C394.192 96.012 346.316 62.956 339.384 68.76c-7.272 6.084 17.16 58.756 61.544 111.804 44.388 53.048 92.26 86.104 99.196 80.3 6.484-5.424-17.156-58.756-61.544-111.804z" fill="#D7E057" p-id="7400"></path><path d="M493.76 220.072c-7.24-14.036-23.44-42.424-50.58-74.864-27.36-32.7-52.204-53.584-64.58-63.116-33.576-25.88-40.468-20.096-43.068-17.928-2.652 2.22-9.7 8.112 9.932 45.668 12.396 23.716 30.46 50.204 50.86 74.584 27.36 32.7 52.208 53.584 64.584 63.12 21.132 16.284 31.692 20.036 37.268 20.036 3.28 0 4.832-1.3 5.796-2.104 2.528-2.112 9.224-7.716-10.212-45.396z m-88.232-43.36C365.512 128.892 345.86 86.72 344.176 74.6c11.804 3.924 50.06 30.812 89.8 78.308 37.512 44.832 58.752 88.644 61.044 102.008-12.148-4.28-50.088-31.112-89.492-78.204z" fill="#3A312A" p-id="7401"></path><path d="M557.684 198.688c-14.3-67.676-41.06-119.332-49.908-117.46-9.276 1.96-12.424 59.936 1.876 127.612 14.3 67.676 41.06 119.332 49.908 117.46 8.268-1.748 12.424-59.936-1.876-127.612z" fill="#D7E057" p-id="7402"></path><path d="M563.556 197.452c-11.324-53.616-38.532-126.068-57.016-122.096-18.516 3.916-14.084 81.104-2.752 134.728 8.816 41.712 20.952 71.812 27.404 86.044 14.692 32.412 23.252 36.3 27.58 36.3 0.828 0 1.5-0.14 2.032-0.252 3.22-0.68 11.764-2.484 12.288-44.88 0.184-15.796-0.796-48.468-9.536-89.844z m-5.712 121.2c-8.72-9.48-29.624-50.984-42.32-111.056-12.892-61.012-10.456-107.472-6.256-118.96 8.584 9.008 29.744 50.708 42.544 111.292v0.004c12.088 57.192 10.276 105.844 6.032 118.72z" fill="#3A312A" p-id="7403"></path><path d="M447.232 261.068c-64.092-26.012-121.712-33.14-125.28-24.356-3.4 8.38 42.728 43.832 106.82 69.84 64.092 26.012 122.1 32.184 125.28 24.356 3.4-8.376-42.728-43.828-106.82-69.84z" fill="#D7E057" p-id="7404"></path><path d="M529.356 297.66c-12.872-8.86-40.36-26.116-79.864-42.148-29.46-11.96-60.208-21.048-86.576-25.584-41.768-7.2-45.224 1.32-46.52 4.528-7.116 17.536 59.344 57.048 110.124 77.656 39.188 15.908 71.172 22.632 86.752 25.232 11.952 1.988 20.756 2.752 27.264 2.752 16.26 0 18.192-4.752 19.076-6.924 1.272-3.14 4.656-11.476-30.256-35.512z m-98.328 3.336c-57.384-23.288-94.696-51.472-102.044-61.508 12.052-2.084 58.212 3.688 115.996 27.14 56.896 23.088 94.056 50.992 101.848 61.248-13.416 1.872-61.628-4.896-115.8-26.88z" fill="#3A312A" p-id="7405"></path><path d="M643.872 301.692c-14.3-67.672-41.06-119.332-49.908-117.46-9.28 1.96-12.424 59.936 1.876 127.612 14.3 67.676 41.06 119.332 49.908 117.46 8.268-1.748 12.424-59.936-1.876-127.612z" fill="#D7E057" p-id="7406"></path><path d="M649.744 300.456c-11.324-53.62-38.38-126.032-57.02-122.096-18.512 3.916-14.084 81.104-2.752 134.728 8.816 41.716 20.952 71.816 27.408 86.048 14.692 32.408 23.252 36.296 27.58 36.296 0.828 0 1.5-0.14 2.032-0.252 3.22-0.68 11.764-2.484 12.288-44.88 0.184-15.796-0.796-48.468-9.536-89.844z m-5.712 121.2c-8.72-9.48-29.628-50.984-42.32-111.052-12.892-61.016-10.452-107.476-6.252-118.964 8.584 9.008 29.744 50.708 42.544 111.292v0.004c12.08 57.192 10.272 105.844 6.028 118.72z" fill="#3A312A" p-id="7407"></path><path d="M680.728 467.388l-176.2-210.596a6 6 0 1 0-9.204 7.7l176.2 210.596a6 6 0 0 0 9.204-7.7z" fill="#3A312A" p-id="7408"></path><path d="M605.124 391.2c-10.44-71.28-58.04-125.08-115.16-125.08-64.8 0-117.36 69.24-117.36 154.64 0 0.6 0 1.24 0.04 1.84 0.12 17.04 2.36 33.4 6.4 48.64h221.84c1.8-6.76 3.24-13.72 4.24-20.88 1.48-9.6 2.2-19.48 2.2-29.6s-0.72-20-2.2-29.56z" fill="#FCE8CB" p-id="7409"></path><path d="M611.064 390.328c-11.056-75.444-61.98-130.208-121.096-130.208-68.02 0-123.36 72.064-123.36 160.636 0 0.732 0.004 1.508 0.04 1.884 0.124 17.204 2.344 34.072 6.6 50.136a6 6 0 0 0 5.8 4.464h77.6a6 6 0 1 0 0-12h-72.92c-3.268-13.748-4.976-28.112-5.092-43.036-0.028-0.472-0.024-0.976-0.024-1.448 0-81.956 49.956-148.636 111.36-148.636 53.104 0 99.044 50.444 109.232 119.996 1.416 9.12 2.128 18.752 2.128 28.64 0 9.872-0.716 19.524-2.14 28.772a170.88 170.88 0 0 1-2.972 15.712h-84.856a6 6 0 1 0 0 12h89.532c2.72 0 5.1-1.828 5.796-4.46a181.164 181.164 0 0 0 4.372-21.508c1.508-9.764 2.268-20.032 2.268-30.516a201.076 201.076 0 0 0-2.268-30.428z" fill="#3A312A" p-id="7410"></path><path d="M919.444 316.28c-17.72-5.8-55.64 15.32-78.64 53.76a134.388 134.388 0 0 0-12.48 27.24c-8.6 26.12-8.2 52.56-3.08 73.96h79.04c6.96 0 13.68 1.16 19.92 3.32 8.52-11.2 15.84-24.32 20.68-39.08 18.12-55.24-2.64-111.72-25.44-119.2z" fill="#D7E057" p-id="7411"></path><path d="M921.312 310.58c-20.536-6.72-60.764 14.78-85.652 56.372a141.152 141.152 0 0 0-13.036 28.456c-8.1 24.608-9.244 52.036-3.216 77.232a6 6 0 0 0 5.836 4.6h79.04c6.184 0 12.228 1.008 17.96 2.992a6 6 0 0 0 6.732-2.04c9.58-12.588 16.848-26.332 21.608-40.84 18.36-55.98-1.072-117.52-29.272-126.772z m17.872 123.028a126.06 126.06 0 0 1-17.28 33.96 67.12 67.12 0 0 0-17.616-2.332h-74.216c-4.34-21.764-2.972-45.048 3.952-66.08a128.8 128.8 0 0 1 11.928-26.04c22.428-37.492 57.964-55.6 71.62-51.14 18 5.912 39.496 57.108 21.612 111.632z" fill="#3A312A" p-id="7412"></path><path d="M841.124 370.84c-0.12-0.28-0.2-0.56-0.32-0.8-5.96-14.92-14.36-27.96-23.8-38.84a143.576 143.576 0 0 0-12.72-12.88l-0.08-0.04c-21.92-19.36-46.04-28.04-58.64-23.08-19.88 7.8-39.88 66.28-18.64 120.44a139.64 139.64 0 0 0 25.4 41.44c4.64 5.28 9.56 10 14.52 14.16h73.32c11.16-23.36 15.68-62.84 0.96-100.4z" fill="#D7E057" p-id="7413"></path><path d="M846.616 368.416a11.32 11.32 0 0 0-0.3-0.752c-5.856-14.604-14.192-28.196-24.792-40.412a149.488 149.488 0 0 0-13.248-13.416 5.6 5.6 0 0 0-0.4-0.32c-23.2-20.372-49.084-29.988-64.504-23.908-24.18 9.488-44.08 72.016-22.036 128.216a144.744 144.744 0 0 0 26.476 43.212 139.812 139.812 0 0 0 15.172 14.796c1.08 0.908 2.444 1.404 3.856 1.404h73.32c2.312 0 4.416-1.328 5.416-3.416 10.736-22.46 17.472-63.484 1.04-105.404z m-10.34 96.824h-67.224a128.036 128.036 0 0 1-12.24-12.136 132.856 132.856 0 0 1-24.304-39.652c-20.568-52.44 0.308-106.804 15.252-112.668 9.232-3.64 30.772 2.836 52.468 21.996 0.108 0.096 0.232 0.192 0.356 0.284a137.344 137.344 0 0 1 11.884 12.072 131.076 131.076 0 0 1 22.884 37.42l0.184 0.472c13.276 33.88 10.06 69.912 0.74 92.212z" fill="#3A312A" p-id="7414"></path><path d="M136.084 471.24h261a27.12 27.12 0 0 0-0.44-1.72 134.48 134.48 0 0 0-24-46.92c-6.8-8.64-14.64-16.4-23.28-23.04-12.76-9.88-22.04-23.56-25.68-39.24-0.92-4.04-2.16-8.08-3.64-12.08-16.36-43.76-63.08-69.28-108.76-59.44-2.04 0.44-4.08 0.96-6.04 1.52-50.44 14.28-79.76 66.84-65.44 117.28 0.36 1.24 0.72 2.44 1.12 3.64 5.04 15.36 5.12 31.92-0.64 47.04-1.6 4.24-3.04 8.56-4.2 12.96z" fill="#D7E057" p-id="7415"></path><path d="M402.952 469.98a30.44 30.44 0 0 0-0.536-2.1 140.1 140.1 0 0 0-25.056-48.992 138.24 138.24 0 0 0-24.32-24.076c-11.94-9.244-20.288-21.972-23.504-35.824a103.78 103.78 0 0 0-3.868-12.848c-17.384-46.492-67.1-73.672-115.648-63.204a99.96 99.96 0 0 0-6.408 1.608c-25.936 7.344-47.46 24.364-60.608 47.928-13.148 23.564-16.332 50.824-8.956 76.796 0.384 1.316 0.764 2.588 1.18 3.84 4.728 14.412 4.536 29.692-0.552 43.052a135.9 135.9 0 0 0-4.388 13.552 6.008 6.008 0 0 0 5.804 7.528h261a6 6 0 0 0 5.86-7.26z m-258.788-4.736c0.528-1.564 1.104-3.168 1.732-4.824 6.056-15.904 6.32-34.032 0.728-51.072a97.128 97.128 0 0 1-1.044-3.392c-6.488-22.852-3.68-46.872 7.904-67.632a88.328 88.328 0 0 1 53.42-42.24c1.836-0.524 3.744-1.008 5.652-1.416 42.768-9.212 86.564 14.724 101.868 55.656 1.444 3.904 2.592 7.716 3.424 11.352 3.84 16.56 13.732 31.696 27.868 42.64a126.38 126.38 0 0 1 22.236 22.008 127.956 127.956 0 0 1 21.096 38.916H144.164z" fill="#3A312A" p-id="7416"></path><path d="M210.988 288.648l-12.24-42.052a6 6 0 1 0-11.52 3.352L199.464 292a6.008 6.008 0 0 0 7.436 4.084 6 6 0 0 0 4.088-7.436z" fill="#3A312A" p-id="7417"></path><path d="M806.804 67.372c-10.248-3.596-32.836 34.188-50.448 84.392-17.612 50.204-23.584 93.816-13.332 97.412 10.248 3.596 32.836-34.188 50.448-84.392 17.612-50.204 23.58-93.816 13.332-97.412z" fill="#D7E057" p-id="7418"></path><path d="M808.788 61.712c-23.476-8.328-54.628 78.18-58.092 88.068-3.468 9.884-33.196 96.796-9.66 105.06 1.072 0.38 2.152 0.556 3.252 0.556 23.056 0 51.532-79.184 54.84-88.62 3.468-9.888 33.2-96.804 9.66-105.064z m-20.98 101.084c-17.38 49.532-36.008 77.164-42.672 80.344-3.216-6.644-0.496-39.864 16.88-89.392 17.38-49.536 36.012-77.168 42.672-80.344 3.22 6.644 0.5 39.856-16.88 89.392z" fill="#3A312A" p-id="7419"></path><path d="M869.068 133.192c-8.16-7.168-43.244 19.416-78.36 59.384-35.12 39.964-56.972 78.176-48.812 85.348 8.16 7.168 43.244-19.416 78.36-59.384 35.116-39.964 56.972-78.176 48.812-85.348z" fill="#D7E057" p-id="7420"></path><path d="M873.032 128.688c-6.688-5.88-18.332-2.144-36.656 11.744-15.112 11.448-32.932 28.568-50.176 48.188-6.916 7.868-67 77.352-48.264 93.816 2.028 1.78 4.512 2.68 7.496 2.68 6.868 0 16.396-4.748 29.16-14.42 15.108-11.448 32.928-28.564 50.172-48.188 6.912-7.872 67.004-77.352 48.268-93.82z m-57.284 85.896c-34.652 39.436-62.264 58.088-69.628 58.544-0.496-7.368 14.448-37.152 49.096-76.584 34.652-39.436 62.268-58.088 69.632-58.544 0.5 7.364-14.452 37.152-49.1 76.584z" fill="#3A312A" p-id="7421"></path><path d="M741.144 175.192c-2.452-53.148-13.232-95.824-24.084-95.324s-17.66 43.992-15.208 97.136c2.452 53.148 13.232 95.824 24.084 95.324s17.66-43.992 15.208-97.136z" fill="#D7E057" p-id="7422"></path><path d="M747.136 174.916c-0.476-10.4-5.364-101.052-29.888-101.052l-0.464 0.012c-8.888 0.412-14.684 11.176-18.244 33.892-2.932 18.736-3.888 43.42-2.68 69.516 0.476 10.4 5.364 101.064 29.888 101.052l0.464-0.012c8.892-0.412 14.688-11.176 18.244-33.892 2.936-18.732 3.888-43.42 2.68-69.516z m-21.492 91.024c-5.468-4.952-15.38-36.772-17.796-89.216-2.416-52.432 4.52-85.032 9.512-90.472 5.464 4.956 15.376 36.776 17.792 89.216 2.42 52.444-4.52 85.04-9.508 90.472z" fill="#3A312A" p-id="7423"></path><path d="M811.924 253.08l-18.32-6.72-32.68-12.04-2.08-0.76-18.36-6.76-2.12-0.76-33.32-12.28-16.6-6.08c-20.28-7.48-42.52 4.6-47.32 25.68l-15.2 66.64-16.36 71.76-4.44 19.44-18.24 80.04h158.16l1.44-2.84 5.84-11.32 30.64-59.6 34.04-66.28 14.44-28.08c9.84-19.16 0.68-42.6-19.52-50.04z" fill="#F16C7A" p-id="7424"></path><path d="M838.548 271.54a41.908 41.908 0 0 0-24.556-24.092l-123.468-45.396a41.816 41.816 0 0 0-34.384 2.472 41.888 41.888 0 0 0-20.868 27.5l-54.24 237.888c-0.404 1.776 0.024 3.648 1.16 5.076 1.14 1.424 2.868 2.256 4.692 2.256h158.16a6 6 0 0 0 5.352-3.288l86.384-168.084v-0.004a41.896 41.896 0 0 0 1.768-34.328z m-12.44 28.84l-84.748 164.864h-146.956l52.572-230.552a29.852 29.852 0 0 1 14.884-19.616 29.808 29.808 0 0 1 24.524-1.76l123.468 45.396a29.864 29.864 0 0 1 16.256 41.668z" fill="#3A312A" p-id="7425"></path><path d="M665.64 308.236l-37.676-13.86a6.008 6.008 0 0 0-4.14 11.268l37.676 13.86a6 6 0 0 0 4.14-11.268zM649.22 379.96l-37.676-13.86a6.008 6.008 0 0 0-4.14 11.268l37.676 13.86a6 6 0 0 0 4.14-11.268zM632.508 454.016l-37.676-13.86a6 6 0 1 0-4.14 11.268l37.676 13.86a6 6 0 0 0 4.14-11.268zM822.536 318.64l-37.676-13.86a6 6 0 1 0-4.14 11.268l37.676 13.86a6 6 0 0 0 4.14-11.268zM785.14 391.888l-37.676-13.86a6.008 6.008 0 0 0-4.14 11.268l37.676 13.86a6 6 0 0 0 4.14-11.268zM748.556 462.776l-28.224-10.384a6.008 6.008 0 0 0-4.14 11.268l28.224 10.384a6 6 0 0 0 4.14-11.268z" fill="#3A312A" p-id="7426"></path><path d="M903.148 594.092h-780.8c-0.16 0-0.24 0.16-0.2 0.32 8.056 38.732 20.156 75.584 35.72 109.916l30.328 56.84c39.208 63.072 91.312 114.28 151.752 148.204H685.548c107.6-60.4 188.8-175.56 217.8-314.96 0.04-0.16-0.04-0.32-0.2-0.32z" fill="#87796F" p-id="7427"></path><path d="M908.036 590.476a6.388 6.388 0 0 0-4.888-2.384h-780.8c-1.86 0-3.772 0.936-4.912 2.412-1.072 1.388-1.52 3.416-1.164 5.128 8.028 38.584 20.18 75.988 36.132 111.172a6 6 0 1 0 10.928-4.952c-14.596-32.204-25.944-66.32-33.832-101.756h766.488c-29.532 133.288-106.484 243.464-212.02 303.276H341.524c-58.468-33.148-109.7-83.384-148.232-145.372a6 6 0 0 0-10.192 6.336c39.9 64.18 93.12 116.144 153.912 150.264 0.9 0.504 1.988 0.768 3.016 0.768h345.52c1.028 0 2.04-0.264 2.936-0.768 111.084-62.352 191.54-178.612 220.684-318.736a6.548 6.548 0 0 0-1.132-5.388z" fill="#3A312A" p-id="7428"></path><path d="M904.284 471.24H123.136c-33.152 0-61.776 25.468-63.236 58.592-1.552 35.16 26.492 64.152 61.312 64.152H902.36c33.152 0 61.772-25.472 63.236-58.592 1.548-35.16-26.496-64.152-61.312-64.152z" fill="#87796F" p-id="7429"></path><path d="M952.964 486.04a66.788 66.788 0 0 0-48.684-20.8h-392.924a6 6 0 1 0 0 12h392.924c15.252 0 29.464 6.072 40.016 17.096 10.544 11.02 15.976 25.504 15.3 40.788-1.284 29.148-26.96 52.86-57.24 52.86H121.212a54.9 54.9 0 0 1-40.012-17.096c-10.544-11.02-15.98-25.504-15.304-40.788 1.288-29.148 26.968-52.86 57.244-52.86h333.508a6 6 0 1 0 0-12H123.136c-37.228 0-67.636 28.256-69.232 64.328-0.82 18.588 5.792 36.212 18.624 49.616a66.776 66.776 0 0 0 48.68 20.8H902.36c37.232 0 67.636-28.256 69.232-64.328 0.816-18.588-5.8-36.212-18.628-49.616z" fill="#3A312A" p-id="7430"></path><path d="M339.828 909.352v16.872a32.612 32.612 0 0 0 32.612 32.612h280.612a32.612 32.612 0 0 0 32.612-32.612v-16.872H339.828z" fill="#87796F" p-id="7431"></path><path d="M685.664 903.352H339.832a6 6 0 0 0-6 6v16.876c0 21.288 17.32 38.608 38.608 38.608h280.616c21.288 0 38.608-17.32 38.608-38.608v-16.876a6 6 0 0 0-6-6z m-6 22.876a26.64 26.64 0 0 1-26.608 26.608H372.44a26.64 26.64 0 0 1-26.608-26.608v-10.876h333.832v10.876z" fill="#3A312A" p-id="7432"></path><path d="M489.948 272.092c-4.08 0-8.12 0.28-12.12 0.88 24.2 3.42 46.1 17.232 63.156 38.016 26.332 32.092 35.164 75.128 25.94 115.6l-8.812 38.664h24l16.96-74.4c-10.404-67.68-55.364-118.76-109.124-118.76z" fill="#CCAE8B" p-id="7433"></path><path d="M941.708 359.492c-5.88-22.36-16.36-34.96-24.16-37.48-4-1.32-10.76-0.64-19.04 2.72 6.84 5.24 14.48 16.88 19.2 34.76 3.6 13.76 8.08 41.72-2.56 74.12-4.04 12.32-9.6 22.84-15.64 31.64h4.76c6.08 0 11.96 0.84 17.64 2.36a125.8 125.8 0 0 0 17.24-34c10.64-32.4 6.16-60.36 2.56-74.12zM835.548 373.052c-4.8-12.2-10.96-22.44-17.4-30.96l-10.92 21.24c1.56 3.08 3 6.32 4.32 9.72 13.72 35.04 10 70.48 0.88 92.2h24c9.12-21.72 12.84-57.16-0.88-92.2zM345.668 404.292c-14.12-10.92-24-26.04-27.84-42.64-0.88-3.8-2.04-7.6-3.4-11.32-13.12-35.04-47.08-57.64-83.4-57.64-4 0-8 0.28-12 0.84 31.6 4.36 59.72 25.64 71.4 56.8 1.36 3.72 2.52 7.52 3.4 11.32 3.84 16.6 13.72 31.72 27.84 42.64 20.32 15.68 35.12 36.72 43.28 60.96h24c-8.16-24.24-22.96-45.28-43.28-60.96z" fill="#B9BC39" p-id="7434"></path><path d="M827.348 275.892a29.676 29.676 0 0 0-17.52-17.16l-25.6-9.4a35.644 35.644 0 0 1 3.2 37.796l-91.56 178.124h24.64l-4.32-1.6a5.96 5.96 0 0 1-3.56-7.68 6 6 0 0 1 7.72-3.56l23.2 8.52 30.96-60.16-31.2-11.48a6.04 6.04 0 0 1-3.56-7.68c1.16-3.12 4.6-4.72 7.72-3.6l32.56 12 32.08-62.4-31.4-11.56a6.068 6.068 0 0 1-3.56-7.72 6.028 6.028 0 0 1 7.72-3.56l32.76 12.08 8.48-16.44c3.88-7.64 4.36-16.56 1.24-24.52z" fill="#CE4E61" p-id="7435"></path><path d="M815.988 600.092c-29.52 133.28-106.48 243.44-212 303.28h80c105.52-59.84 182.48-170 212-303.28h-80zM944.308 494.332c-10.56-11.04-24.76-17.08-40.04-17.08h-80c15.28 0 29.48 6.04 40.04 17.08 10.52 11.04 15.96 25.52 15.28 40.796-1.28 29.16-26.96 52.84-57.24 52.84h80c30.28 0 55.96-23.68 57.24-52.84a55.076 55.076 0 0 0-15.28-40.796z" fill="#6B5B51" p-id="7436"></path></svg>