<?xml version="1.0" standalone="no"?><!DOCTYPE svg PUBLIC "-//W3C//DTD SVG 1.1//EN" "http://www.w3.org/Graphics/SVG/1.1/DTD/svg11.dtd"><svg t="1584885918006" class="icon" viewBox="0 0 1024 1024" version="1.1" xmlns="http://www.w3.org/2000/svg" p-id="34836" xmlns:xlink="http://www.w3.org/1999/xlink" width="50" height="50"><defs><style type="text/css"></style></defs><path d="M523.2 456c88 0 160-72 160-160s-72-160-160-160-160 72-160 160 70.4 160 160 160z m171.2 417.6l166.4-198.4c11.2-12.8 32-16 44.8-3.2s16 32 3.2 44.8L724.8 937.6l-1.6 1.6s0 1.6-1.6 1.6c-11.2 12.8-32 16-44.8 3.2l-97.6-81.6c-12.8-11.2-16-32-3.2-44.8s32-16 44.8-3.2l73.6 59.2z m102.4-331.2c8 6.4 14.4 16 14.4 25.6 0 17.6-14.4 32-32 32-8 0-14.4-3.2-20.8-8-56-46.4-126.4-73.6-203.2-73.6h-64c-176 0-320 144-320 320 0 17.6 14.4 32 32 32h256c17.6 0 32 14.4 32 32s-14.4 32-32 32h-256c-52.8 0-96-43.2-96-96 0-174.4 116.8-321.6 276.8-368-51.2-41.6-84.8-104-84.8-176 0-123.2 100.8-224 224-224s224 100.8 224 224c0 70.4-33.6 134.4-84.8 176 49.6 16 94.4 40 134.4 72z" fill="#ffffff" p-id="34837"></path></svg>