<?xml version="1.0" standalone="no"?><!DOCTYPE svg PUBLIC "-//W3C//DTD SVG 1.1//EN" "http://www.w3.org/Graphics/SVG/1.1/DTD/svg11.dtd"><svg t="1584863445587" class="icon" viewBox="0 0 1024 1024" version="1.1" xmlns="http://www.w3.org/2000/svg" p-id="33096" xmlns:xlink="http://www.w3.org/1999/xlink" width="50" height="50"><defs><style type="text/css"></style></defs><path d="M400 464c88 0 160-72 160-160S488 144 400 144s-160 72-160 160 72 160 160 160z m-124.8 25.6C214.4 449.6 176 380.8 176 304c0-123.2 100.8-224 224-224s224 100.8 224 224c0 76.8-38.4 145.6-99.2 185.6C640 537.6 720 651.2 720 784v64c0 52.8-43.2 96-96 96H176c-52.8 0-96-43.2-96-96v-64c0-132.8 80-246.4 195.2-294.4zM624 880c17.6 0 32-14.4 32-32v-64c0-140.8-115.2-256-256-256S144 643.2 144 784v64c0 17.6 14.4 32 32 32h448z m65.6-720c96 1.6 174.4 80 174.4 176 0 56-25.6 104-65.6 137.6 86.4 40 145.6 128 145.6 230.4v64c0 52.8-43.2 96-96 96h-48c-17.6 0-32-14.4-32-32s14.4-32 32-32h48c17.6 0 32-14.4 32-32v-64c0-105.6-84.8-190.4-190.4-192H688c-17.6 0-32-14.4-32-32s14.4-32 32-32h1.6c60.8-1.6 110.4-51.2 110.4-112s-49.6-110.4-110.4-112H688c-17.6 0-32-14.4-32-32s14.4-32 32-32h1.6z" fill="#77AF9C" p-id="33097"></path></svg>