<?xml version="1.0" standalone="no"?><!DOCTYPE svg PUBLIC "-//W3C//DTD SVG 1.1//EN" "http://www.w3.org/Graphics/SVG/1.1/DTD/svg11.dtd"><svg t="1584869022338" class="icon" viewBox="0 0 1024 1024" version="1.1" xmlns="http://www.w3.org/2000/svg" p-id="33890" xmlns:xlink="http://www.w3.org/1999/xlink" width="50" height="50"><defs><style type="text/css"></style></defs><path d="M736 96H288C200 96 128 168 128 256v512c0 88 72 160 160 160h448c88 0 160-72 160-160V256c0-88-72-160-160-160z m-75.2 64v224l-51.2-48c-9.6-9.6-20.8-12.8-33.6-12.8s-24 4.8-33.6 14.4L496 382.4V160h164.8zM192 768V256c0-52.8 43.2-96 96-96v704c-52.8 0-96-43.2-96-96z m640 0c0 52.8-43.2 96-96 96H352V160h80v260.8c0 27.2 20.8 48 48 48 12.8 0 25.6-4.8 33.6-14.4l62.4-62.4 67.2 64c9.6 8 20.8 12.8 33.6 12.8h1.6c12.8 0 24-4.8 33.6-14.4 8-9.6 12.8-20.8 12.8-33.6V160h11.2c52.8 0 96 43.2 96 96v512z" fill="#77AF9C" p-id="33891"></path></svg>