<?xml version="1.0" standalone="no"?><!DOCTYPE svg PUBLIC "-//W3C//DTD SVG 1.1//EN" "http://www.w3.org/Graphics/SVG/1.1/DTD/svg11.dtd"><svg t="1584869167751" class="icon" viewBox="0 0 1024 1024" version="1.1" xmlns="http://www.w3.org/2000/svg" p-id="34076" xmlns:xlink="http://www.w3.org/1999/xlink" width="50" height="50"><defs><style type="text/css"></style></defs><path d="M904 241.6L790.4 128c-36.8-36.8-97.6-36.8-136 0L129.6 652.8c-11.2 11.2-17.6 27.2-17.6 43.2l-6.4 166.4v4.8c1.6 17.6 8 33.6 20.8 44.8 11.2 11.2 27.2 16 43.2 16h3.2l163.2-6.4c16 0 30.4-8 41.6-19.2l524.8-524.8c40-38.4 40-99.2 1.6-136zM203.2 670.4l419.2-419.2 158.4 158.4-419.2 419.2-158.4-158.4z m-35.2 195.2l4.8-132.8 126.4 126.4-131.2 6.4z m691.2-534.4l-33.6 33.6-158.4-158.4 33.6-33.6c6.4-6.4 14.4-9.6 22.4-9.6 8 0 16 3.2 22.4 9.6l113.6 113.6c12.8 12.8 12.8 32 0 44.8z" fill="#77AF9C" p-id="34077"></path></svg>