<?xml version="1.0" standalone="no"?><!DOCTYPE svg PUBLIC "-//W3C//DTD SVG 1.1//EN" "http://www.w3.org/Graphics/SVG/1.1/DTD/svg11.dtd"><svg t="1584869335670" class="icon" viewBox="0 0 1024 1024" version="1.1" xmlns="http://www.w3.org/2000/svg" p-id="34278" xmlns:xlink="http://www.w3.org/1999/xlink" width="50" height="50"><defs><style type="text/css"></style></defs><path d="M859.2 406.4H616c-1.6 0-3.2-1.6-3.2-4.8l43.2-152c8-28.8 4.8-59.2-9.6-84.8S608 118.4 579.2 110.4c-28.8-8-59.2-4.8-84.8 9.6s-44.8 38.4-52.8 67.2l-22.4 78.4c-24 81.6-99.2 139.2-184 139.2h-68.8c-52.8 0-96 43.2-96 96v320c0 52.8 43.2 96 96 96h612.8c44.8 0 83.2-30.4 92.8-72l80-320c1.6-8 3.2-16 3.2-24 0-52.8-43.2-94.4-96-94.4z m-694.4 448c-17.6 0-32-14.4-32-32v-320c0-17.6 14.4-32 32-32h80v384h-80z m724.8-345.6l-80 320c-3.2 14.4-16 24-30.4 24H308.8V457.6c80-25.6 145.6-89.6 169.6-174.4l22.4-78.4c3.2-12.8 11.2-22.4 22.4-28.8 11.2-6.4 24-8 36.8-4.8 12.8 3.2 22.4 11.2 28.8 22.4 6.4 11.2 8 24 4.8 36.8L550.4 384c-1.6 6.4-3.2 12.8-3.2 19.2 0 36.8 30.4 67.2 67.2 67.2h243.2c17.6 0 32 14.4 32 32 1.6 1.6 0 4.8 0 6.4z" fill="#77AF9C" p-id="34279"></path></svg>